<?xml version="1.0" encoding="utf-8"?>
<!-- Generator: Adobe Illustrator 19.2.1, SVG Export Plug-In . SVG Version: 6.00 Build 0)  -->
<svg version="1.1" id="Слой_1" xmlns="http://www.w3.org/2000/svg" xmlns:xlink="http://www.w3.org/1999/xlink" x="0px" y="0px"
	 viewBox="0 0 595.3 841.9" style="enable-background:new 0 0 595.3 841.9;" xml:space="preserve">
<style type="text/css">
	.st0{fill-rule:evenodd;clip-rule:evenodd;fill:#2EADE3;}
	.st1{fill-rule:evenodd;clip-rule:evenodd;fill:#FFFFFF;}
	.st2{fill-rule:evenodd;clip-rule:evenodd;fill:#247741;}
</style>
<path class="st0" d="M285.9,76.8c0-0.2-0.1-0.4-0.1-0.4c6.1-6.4,12.1-13,18.9-18.7c4.5-3.8,11.2-3,15.4,1.2c5.7,5.6,11.4,11.3,17,17
	c4.2,4.2,3.9,5.3-1.7,7.3c-9.5,3.4-18.9,2.6-28.2-1.1c-2.8-1.1-5.5-2.3-8.4-3.4C293.2,76.6,291.7,76.4,285.9,76.8z"/>
<path class="st1" d="M290.9,82.5c6.7,0,13.1,1.2,18.9,4.8c12.1,9.6,4.5,25.8,2.2,26.2c-3.1,0.5-6.1-0.7-8.4-3
	c-5.9-5.9-11.8-11.7-17.6-17.7c-2.1-2.2-3.3-4.8-3.2-7.9c0-1.4,0.5-1.8,1.8-2C286.8,82.5,288.8,82.5,290.9,82.5z"/>
<path class="st2" d="M321.9,108.4c-1.2-6-0.3-11.1,3.4-15.5c3.7-4.4,8.7-6.4,14.1-7.6c1.3-0.3,1.4,0.2,1.2,1.4
	c-0.5,2.2-1.3,4.3-2.9,5.9C332.6,97.7,327.5,102.8,321.9,108.4z"/>
</svg>
